<svg xmlns="http://www.w3.org/2000/svg" xmlns:xlink="http://www.w3.org/1999/xlink" width="504" height="541" viewBox="0 0 504 541">
    <defs>
        <path id="a" d="M0 0h504v541H0z"/>
    </defs>
    <g fill="none" fill-rule="evenodd">
        <use fill="#002AA6" style="mix-blend-mode:multiply" xlink:href="#a"/>
        <g fill="#FFF" fill-rule="nonzero">
            <path d="M250.639 245.925c-12.915-18.289-28.235-33.218-44.695-43.17-14.054-8.585-29.247-13.313-40.136-13.313-36.718 0-43.808 26.251-43.808 41.802 0 19.035 7.85 50.387 29.88 81.241 34.946 48.894 70.65 61.957 86.35 61.957 28.868 0 40.77-34.462 40.77-53 0-22.642-10.129-49.515-28.361-75.517zm-77.36-42.176c11.9 0 30.513 10.7 50.771 32.347-3.165 4.977-21.398 32.97-26.082 65.441a257.124 257.124 0 0 1-6.458-8.584c-20.131-28.242-27.348-56.608-27.348-73.652 0-13.81 4.938-15.552 9.116-15.552zm-37.098 27.122c0-10.077 5.57-23.762 17.472-27.122-2.785 4.106-3.545 11.446-3.545 15.925 0 19.035 7.85 50.387 29.88 81.24 5.698 7.963 11.396 14.308 16.967 20.404.506 7.714 2.405 17.542 5.318 25.007-12.408-8.584-66.092-57.602-66.092-115.454zm103.822 130.01c-14.434 0-29.12-11.819-29.12-43.668 0-21.15 8.102-45.908 22.79-69.795 3.545 4.603 6.963 9.33 10.002 14.183-10.256 18.662-16.08 34.213-17.852 47.525l-.254 1.742c-.253 2.24-.506 3.359-.506 6.096 0 12.939 3.545 22.394 10.635 28.241 6.204 5.101 13.168 5.723 15.827 5.723.38 0 2.152 0 3.798-.124-2.532 4.728-7.723 10.077-15.32 10.077zm12.028-24.384c-5.444 0-12.408-3.235-12.408-17.542 0-16.05 6.71-31.352 12.408-42.3 5.825 11.321 12.409 26.375 12.409 42.797.126 13.063-6.331 17.045-12.409 17.045z"/>
            <path d="M339.642 190.667c-10.526 0-24.936 4.473-38.47 12.55-8.521 5.095-17.794 11.805-27.443 21.87a216.853 216.853 0 0 0-9.774-12.426c9.147-9.195 37.593-35.663 70.424-35.663 18.296 0 30.827 3.977 43.233 12.923-1.003-1.366-14.536-24.479-48.997-24.479-38.345 0-67.668 29.698-74.31 36.533-22.931-23.61-49.372-36.533-74.308-36.533-34.46 0-47.995 23.113-48.997 24.48 12.406-9.072 24.937-12.924 43.232-12.924 26.315 0 58.771 18.515 83.833 49.829 22.932 28.58 38.095 63.621 38.095 91.455 0 40.634-17.419 52.314-23.308 57.16C353.05 349.97 382.248 269.324 383 233.785v-1.49c0-15.41-7.017-41.628-43.358-41.628zm-57.517 46.598c6.14-6.835 13.157-13.42 19.047-17.77 12.28-9.692 23.183-14.538 31.077-14.538 4.135 0 9.023 1.74 9.023 15.532 0 3.977-.376 8.45-1.254 13.42-2.756 16.651-10.526 38.521-25.814 60.143a211.2 211.2 0 0 1-6.265 8.45c-4.26-31.936-20.927-57.657-25.814-65.237zm22.806 109.349c2.005-7.207 3.634-17.397 4.01-24.355 5.64-6.213 11.278-12.178 16.917-20.13 17.293-24.604 25.814-49.456 28.571-68.22.752-4.721 1.003-9.195 1.003-13.047 0-4.473-.752-11.804-3.51-15.905 11.655 3.355 17.294 17.024 17.294 27.089v1.864c-1.755 47.964-42.23 96.426-64.285 112.704z"/>
        </g>
    </g>
</svg>
