<svg xmlns="http://www.w3.org/2000/svg" xmlns:xlink="http://www.w3.org/1999/xlink" width="42" height="42" viewBox="0 0 42 42">
    <defs>
        <path id="a" d="M6.183 6.125C2.061 10.204 0 15.162 0 20.995c0 5.833 2.061 10.791 6.183 14.88C10.305 39.958 15.245 42 21 42c5.756 0 10.695-2.042 14.817-6.125C39.939 31.786 42 26.828 42 20.995s-2.061-10.791-6.183-14.87C31.695 2.041 26.756 0 21 0 15.245 0 10.305 2.041 6.183 6.125zM8.05 34.003c-3.617-3.65-5.425-7.991-5.425-13.008 0-5.016 1.808-9.352 5.425-13.008C11.667 4.331 15.984 2.503 21 2.503c5.017 0 9.353 1.828 13.009 5.484 3.655 3.656 5.483 7.992 5.483 13.008 0 5.017-1.828 9.358-5.483 13.008-3.656 3.661-7.992 5.484-13.009 5.484-5.016 0-9.333-1.823-12.95-5.484z"/>
    </defs>
    <g fill="none" fill-rule="evenodd">
        <g>
            <mask id="b" fill="#fff">
                <use xlink:href="#a"/>
            </mask>
            <path fill="#FD3700" d="M-5 47h52V-5H-5z" mask="url(#b)"/>
        </g>
        <path fill="#FD3700" d="M25.154 19.666c1.276.31 2.32.986 3.133 2.03a5.615 5.615 0 0 1 1.218 3.539c0 1.857-.716 3.414-2.146 4.67-1.432 1.258-3.462 1.886-6.092 1.886-2.514 0-4.447-.64-5.801-1.915-1.354-1.276-2.127-2.92-2.32-4.931h2.9c.116 1.2.629 2.224 1.538 3.075.908.85 2.155 1.276 3.74 1.276 1.51 0 2.757-.396 3.743-1.19.986-.792 1.479-1.788 1.479-2.987 0-1.237-.474-2.242-1.421-3.016-.948-.773-2.253-1.161-3.916-1.161H19.99V18.39h1.218c1.315 0 2.388-.328 3.22-.986.83-.657 1.247-1.488 1.247-2.495 0-1.044-.397-1.894-1.19-2.552-.792-.657-1.827-.986-3.103-.986-1.238 0-2.262.318-3.074.957-.813.638-1.277 1.499-1.393 2.58h-2.9c0-1.777.725-3.238 2.175-4.38 1.45-1.14 3.2-1.71 5.25-1.71 2.088 0 3.8.55 5.134 1.653 1.334 1.103 2.002 2.447 2.002 4.032 0 2.166-1.142 3.81-3.423 4.93v.233z"/>
    </g>
</svg>
