<svg xmlns="http://www.w3.org/2000/svg" xmlns:xlink="http://www.w3.org/1999/xlink" width="39" height="39" viewBox="0 0 39 39">
    <defs>
        <path id="a" d="M6.318 6.266C2.606 9.943.75 14.437.75 19.75c0 5.314 1.856 9.809 5.568 13.486 3.712 3.676 8.189 5.514 13.432 5.514 5.207 0 9.676-1.848 13.406-5.542 3.729-3.694 5.594-8.181 5.594-13.458 0-5.279-1.865-9.763-5.594-13.458C29.426 2.597 24.957.75 19.75.75c-5.243 0-9.72 1.839-13.432 5.516zM7.48 7.593c.022-.025.042-.049.066-.074 2.844-2.889 6.151-4.558 9.902-5.04-2.247 2.09-4.067 4.494-5.356 7.131A24.947 24.947 0 0 1 7.48 7.593zm14.713-5.095c3.726.502 7.012 2.163 9.84 5.021.015.014.026.03.041.044a24.94 24.94 0 0 1-4.602 2.025 24.117 24.117 0 0 0-5.279-7.09zm-1.704.419a22.601 22.601 0 0 1 5.547 7.089 25.292 25.292 0 0 1-5.547.772V2.917zm-6.992 7.099c1.307-2.597 3.163-4.959 5.514-6.994v7.756a25.358 25.358 0 0 1-5.514-.762zm14.583.929a26.27 26.27 0 0 0 5.012-2.26c2.585 3.049 3.932 6.53 4.062 10.445h-7.316a23.426 23.426 0 0 0-1.758-8.185zM6.463 8.718a26.498 26.498 0 0 0 5.02 2.247 22.8 22.8 0 0 0-1.719 8.165H2.451c.13-3.9 1.459-7.374 4.012-10.412zm14.026 3.537a26.866 26.866 0 0 0 6.169-.887 21.933 21.933 0 0 1 1.702 7.762h-7.871v-6.875zm-7.614-.879c1.984.527 4.039.822 6.136.879v6.875H11.24a21.366 21.366 0 0 1 1.635-7.754zm15.169 17.357a22.784 22.784 0 0 0 1.792-8.124h7.307c-.179 3.873-1.563 7.316-4.164 10.331a26.213 26.213 0 0 0-4.935-2.207zm-7.555-1.298v-6.826h7.871a21.302 21.302 0 0 1-1.708 7.712 26.697 26.697 0 0 0-6.163-.886zm-9.235-6.826h7.757v6.826a26.732 26.732 0 0 0-6.004.841 21.942 21.942 0 0 1-1.753-7.667zm-8.792 0h7.314a23.396 23.396 0 0 0 1.807 8.082 26.32 26.32 0 0 0-5.006 2.217c-2.571-3.006-3.937-6.441-4.115-10.299zm18.027 8.303c1.885.054 3.733.309 5.521.765-1.32 2.559-3.175 4.889-5.521 6.897v-7.662zm-6.851.726a25.167 25.167 0 0 1 5.373-.726v7.577a22.587 22.587 0 0 1-5.373-6.851zm-6.04 2.392a24.848 24.848 0 0 1 4.599-1.985c1.286 2.605 3.069 4.963 5.232 6.973-3.721-.482-7.003-2.135-9.831-4.988zm19.826-1.945a24.91 24.91 0 0 1 4.527 1.972c-2.815 2.814-6.076 4.452-9.775 4.949 2.187-2.035 3.969-4.366 5.248-6.921z"/>
    </defs>
    <g fill="none" fill-rule="evenodd">
        <mask id="b" fill="#fff">
            <use xlink:href="#a"/>
        </mask>
        <path fill="#FD3700" d="M-4 43.5h47.5V-4H-4z" mask="url(#b)"/>
    </g>
</svg>
