<svg xmlns="http://www.w3.org/2000/svg" xmlns:xlink="http://www.w3.org/1999/xlink" width="38" height="38" viewBox="0 0 38 38">
    <defs>
        <path id="a" d="M0 0h38v37.997H0z"/>
    </defs>
    <g fill="none" fill-rule="evenodd">
        <mask id="b" fill="#fff">
            <use xlink:href="#a"/>
        </mask>
        <path fill="#FD3700" d="M22.922 24.925c-1.119 1.468-2.854 2.201-5.208 2.201-2.208 0-3.908-.79-5.098-2.375-1.192-1.583-1.787-3.537-1.787-5.86 0-2.15.603-4.046 1.808-5.689 1.205-1.64 2.898-2.462 5.077-2.462 2.267 0 3.98.771 5.143 2.31 1.161 1.54 1.743 3.603 1.743 6.188 0 2.325-.56 4.22-1.678 5.687M32.405 5.54C28.675 1.847 24.206 0 19 0 13.791 0 9.322 1.846 5.594 5.54 1.864 9.234 0 13.718 0 18.996c0 5.28 1.864 9.763 5.594 13.461 3.728 3.694 8.197 5.54 13.405 5.54 3.731 0 7.075-.968 10.047-2.869l-1.098-1.683c-2.665 1.725-5.643 2.604-8.95 2.604-4.626 0-8.608-1.68-11.944-5.057-3.334-3.366-5.002-7.368-5.002-11.996 0-4.627 1.668-8.624 5.002-11.995 3.336-3.37 7.318-5.056 11.944-5.056 4.627 0 8.624 1.685 11.998 5.056 3.371 3.371 5.056 7.368 5.056 11.995 0 1.36-.156 2.658-.449 3.907-.176.643-.373 1.262-.632 1.82-.857 1.845-1.542 2.806-3.076 3.001-2.313.295-3.352-.598-3.896-1.362-.556-.778-.959-1.69-.959-2.94V8.778h-1.264l-.87 3.922h-.263a6.859 6.859 0 0 0-2.898-3.093A8.448 8.448 0 0 0 17.54 8.52c-2.528 0-4.663.994-6.406 2.984-1.743 1.99-2.615 4.526-2.615 7.604 0 3.138.843 5.622 2.528 7.453 1.685 1.83 3.835 2.745 6.45 2.745 1.86 0 3.464-.414 4.815-1.242 1.35-.828 2.302-1.88 2.854-3.159.61 3.05 2.813 4.677 5.66 4.677.55 0 1.471-.08 2.004-.236 3.517-.897 4.492-5.144 4.762-6.332.267-1.283.408-2.619.408-4.017 0-5.278-1.867-9.762-5.595-13.456" mask="url(#b)"/>
    </g>
</svg>
