<?xml version="1.0" standalone="no"?>
<!DOCTYPE svg PUBLIC "-//W3C//DTD SVG 20010904//EN"
 "http://www.w3.org/TR/2001/REC-SVG-20010904/DTD/svg10.dtd">
<svg version="1.0" xmlns="http://www.w3.org/2000/svg"
 width="700.000000pt" height="700.000000pt" viewBox="0 0 700.000000 700.000000"
 preserveAspectRatio="xMidYMid meet">
<metadata>
Created by potrace 1.11, written by Peter Selinger 2001-2013
</metadata>
<g transform="translate(0.000000,700.000000) scale(0.100000,-0.100000)"
fill="#000000" stroke="none">
<path d="M980 3455 l0 -2635 490 0 490 0 0 929 0 929 633 5 c697 5 740 8 997
71 602 148 1012 548 1154 1126 73 296 76 695 7 981 -70 294 -202 531 -416 744
-234 235 -491 368 -845 439 -213 43 -308 46 -1437 46 l-1073 0 0 -2635z m2225
1697 c379 -104 593 -406 572 -807 -12 -225 -78 -387 -211 -520 -93 -94 -189
-148 -328 -189 -138 -40 -243 -46 -778 -46 l-500 0 0 795 0 796 583 -3 c564
-3 584 -4 662 -26z"/>
</g>
</svg>
