<svg xmlns="http://www.w3.org/2000/svg" xmlns:xlink="http://www.w3.org/1999/xlink" width="38" height="38" viewBox="0 0 38 38">
    <defs>
        <path id="a" d="M0 .003h38V38H0z"/>
    </defs>
    <g fill="none" fill-rule="evenodd">
        <g transform="translate(0 -.002)">
            <mask id="b" fill="#fff">
                <use xlink:href="#a"/>
            </mask>
            <path fill="#FD3700" d="M30.996 30.995c-3.374 3.376-7.37 5.057-11.998 5.057-4.626 0-8.607-1.681-11.943-5.057-3.334-3.366-5.002-7.368-5.002-11.996 0-4.627 1.668-8.624 5.002-11.995 3.336-3.371 7.317-5.058 11.943-5.058 4.627 0 8.624 1.687 11.998 5.058 3.371 3.37 5.057 7.368 5.057 11.995 0 4.628-1.686 8.63-5.057 11.996m1.41-25.452C28.676 1.849 24.206.003 19 .003c-5.208 0-9.677 1.846-13.405 5.54C1.864 9.237 0 13.72 0 18.999c0 5.279 1.864 9.763 5.594 13.46 3.728 3.694 8.197 5.542 13.405 5.542 5.207 0 9.677-1.848 13.407-5.541C36.134 28.762 38 24.278 38 18.999c0-5.278-1.866-9.762-5.594-13.456" mask="url(#b)"/>
        </g>
        <path fill="#FD3700" d="M29.046 35.13l-1.098-1.685a16.092 16.092 0 0 1-3.952 1.856c.165.658.403 1.27.697 1.85a18.003 18.003 0 0 0 4.353-2.022M10.287 18.996l-.032.771-1.998-1.998-1.227 1.227h-.028l4.38 4.381 4.38-4.38h-.004l-1.238-1.238-2.011 2.01-.032-.773a6.576 6.576 0 0 1 6.57-6.57c1.107 0 2.158.273 3.067.766l1.599-1.598a8.688 8.688 0 0 0-4.665-1.359 8.759 8.759 0 0 0-8.761 8.761M27.819 18.986l.032-.771 1.997 1.999 1.227-1.228h.029l-4.38-4.38-4.381 4.38h.005l1.238 1.238 2.01-2.01.033.772a6.575 6.575 0 0 1-6.571 6.57 6.425 6.425 0 0 1-3.066-.766l-1.6 1.598a8.68 8.68 0 0 0 4.666 1.359 8.758 8.758 0 0 0 8.76-8.761"/>
    </g>
</svg>
