<svg xmlns="http://www.w3.org/2000/svg" xmlns:xlink="http://www.w3.org/1999/xlink" width="38" height="38" viewBox="0 0 38 38">
    <defs>
        <path id="a" d="M0 .002h38V38H0z"/>
        <path id="c" d="M0 38.998h38V1H0z"/>
    </defs>
    <g fill="none" fill-rule="evenodd" transform="translate(0 -1)">
        <g transform="translate(0 .998)">
            <mask id="b" fill="#fff">
                <use xlink:href="#a"/>
            </mask>
            <path fill="#FD3700" d="M30.996 30.995c-3.374 3.375-7.371 5.056-11.998 5.056-4.626 0-8.607-1.68-11.943-5.056C3.721 27.628 2.053 23.627 2.053 19s1.668-8.625 5.002-11.996c3.336-3.37 7.317-5.057 11.943-5.057 4.627 0 8.624 1.686 11.998 5.057 3.371 3.371 5.057 7.368 5.057 11.996s-1.686 8.63-5.057 11.996m1.41-25.452c-3.73-3.694-8.2-5.54-13.407-5.54-5.208 0-9.677 1.846-13.405 5.54C1.864 9.236 0 13.721 0 19c0 5.278 1.864 9.763 5.594 13.46C9.322 36.153 13.791 38 18.999 38c5.207 0 9.677-1.847 13.407-5.54C36.134 28.761 38 24.276 38 19c0-5.279-1.866-9.764-5.594-13.457" mask="url(#b)"/>
        </g>
        <mask id="d" fill="#fff">
            <use xlink:href="#c"/>
        </mask>
        <path fill="#FD3700" d="M17.521 12h2.958V9h-2.958zM17.521 30.998h2.958V15.082h-2.958z" mask="url(#d)"/>
    </g>
</svg>
