<svg xmlns="http://www.w3.org/2000/svg" width="38" height="38" viewBox="0 0 38 38">
    <path fill="#FD3700" fill-rule="evenodd" d="M24.224 18.469h2.375V9.338h-2.375v9.131zm-12.825 0h2.429V9.338h-2.429v9.131zm7.6 14.727c3.835 0 7.126-1.34 9.87-4.012 2.744-2.675 4.168-5.892 4.276-9.659l-2.429-.421c0 3.239-1.145 5.988-3.43 8.259-2.289 2.269-5.051 3.403-8.287 3.403-3.236 0-5.989-1.134-8.259-3.403-2.27-2.271-3.404-5.02-3.404-8.259l-2.429.421c.108 3.767 1.531 6.984 4.276 9.659 2.744 2.672 6.017 4.012 9.816 4.012zM38 18.997c0 5.278-1.849 9.763-5.542 13.461-3.694 3.693-8.181 5.54-13.459 5.54-5.276 0-9.763-1.864-13.458-5.597C1.847 28.674 0 24.207 0 18.997c0-5.24 1.855-9.72 5.568-13.431C9.279 1.855 13.757 0 18.999 0c5.313 0 9.808 1.855 13.484 5.566C36.16 9.277 38 13.757 38 18.997z"/>
</svg>
