<svg xmlns="http://www.w3.org/2000/svg" xmlns:xlink="http://www.w3.org/1999/xlink" width="38" height="38" viewBox="0 0 38 38">
    <defs>
        <path id="a" d="M0 0h38v37.997H0z"/>
    </defs>
    <g fill="none" fill-rule="evenodd">
        <mask id="b" fill="#fff">
            <use xlink:href="#a"/>
        </mask>
        <path fill="#FD3700" d="M28.289 22.218c-.423 2.25-1.417 3.985-2.983 5.197-1.565 1.215-3.545 1.821-5.937 1.821-2.711 0-5.032-.932-6.967-2.796-1.935-1.865-2.901-4.329-2.901-7.392 0-3.023.94-5.459 2.822-7.306 1.883-1.846 4.09-2.774 6.625-2.774 2.355 0 4.37.652 6.043 1.954 1.67 1.302 2.682 3.08 3.034 5.33h-3.168c-.914-2.813-2.883-4.222-5.91-4.222-1.83 0-3.326.696-4.486 2.087-1.161 1.388-1.741 3.033-1.741 4.931 0 1.938.597 3.616 1.793 5.042 1.196 1.427 2.833 2.14 4.909 2.14 1.549 0 2.805-.37 3.773-1.109a4.988 4.988 0 0 0 1.873-2.903h3.22zM7.055 30.992c3.336 3.376 7.317 5.057 11.943 5.057 4.628 0 8.625-1.68 11.998-5.057 3.37-3.366 5.057-7.368 5.057-11.996 0-4.627-1.686-8.624-5.057-11.995-3.373-3.37-7.37-5.056-11.998-5.056-4.626 0-8.607 1.685-11.943 5.056-3.334 3.371-5.002 7.368-5.002 11.995 0 4.628 1.668 8.63 5.002 11.996zm25.35 1.465c-3.73 3.694-8.198 5.54-13.406 5.54s-9.676-1.846-13.405-5.54C1.864 28.76 0 24.277 0 18.997 0 13.717 1.864 9.233 5.594 5.54 9.323 1.847 13.79 0 18.999 0s9.677 1.847 13.407 5.54C36.134 9.234 38 13.718 38 18.996c0 5.28-1.866 9.763-5.594 13.461z" mask="url(#b)"/>
    </g>
</svg>
